<?xml version="1.0" encoding="UTF-8" standalone="no"?>
<!-- Created with Inkscape (http://www.inkscape.org/) -->

<svg
   xmlns:dc="http://purl.org/dc/elements/1.1/"
   xmlns:cc="http://creativecommons.org/ns#"
   xmlns:rdf="http://www.w3.org/1999/02/22-rdf-syntax-ns#"
   xmlns:svg="http://www.w3.org/2000/svg"
   xmlns="http://www.w3.org/2000/svg"
   xmlns:sodipodi="http://sodipodi.sourceforge.net/DTD/sodipodi-0.dtd"
   xmlns:inkscape="http://www.inkscape.org/namespaces/inkscape"
   width="250px"
   height="400px"
   viewBox="0 0 250 400"
   version="1.1"
   id="SVGRoot"
   inkscape:version="0.92.4 (5da689c313, 2019-01-14)"
   sodipodi:docname="Synja_neutral_dialoginput.svg"
   inkscape:export-filename="C:\Users\Johannes\Synja_neutral.png"
   inkscape:export-xdpi="96"
   inkscape:export-ydpi="96">
  <defs
     id="defs1543" />
  <sodipodi:namedview
     id="base"
     pagecolor="#ffffff"
     bordercolor="#666666"
     borderopacity="1.0"
     inkscape:pageopacity="0.0"
     inkscape:pageshadow="2"
     inkscape:zoom="1.0000001"
     inkscape:cx="398.75521"
     inkscape:cy="84.416745"
     inkscape:document-units="px"
     inkscape:current-layer="layer1"
     showgrid="false"
     inkscape:window-width="1920"
     inkscape:window-height="1001"
     inkscape:window-x="1191"
     inkscape:window-y="-5"
     inkscape:window-maximized="1" />
  <metadata
     id="metadata1546">
    <rdf:RDF>
      <cc:Work
         rdf:about="">
        <dc:format>image/svg+xml</dc:format>
        <dc:type
           rdf:resource="http://purl.org/dc/dcmitype/StillImage" />
        <dc:title />
      </cc:Work>
    </rdf:RDF>
  </metadata>
  <g
     inkscape:label="Ebene 1"
     inkscape:groupmode="layer"
     id="layer1">
    <path
       style="fill:#000000;fill-opacity:1;stroke-width:1.58284533"
       d="M 230.93973,40.081795 C 219.75847,22.83291 195.67308,14.176564 174.47245,7.928242 152.77099,1.5323162 128.89131,2.4250809 106.07858,3.648733 79.792491,5.0586873 51.318023,9.058555 33.558502,25.392648 16.895465,40.718268 15.81768,65.52997 12.75118,86.709874 4.76385,141.87733 -4.8613814,202.34206 19.679643,253.47387 c 5.616152,11.70136 16.764724,22.30792 29.859192,27.35238 45.305619,17.45334 102.209215,18.56185 148.015675,2.183 15.19349,-5.43259 28.6038,-17.31428 34.95647,-30.77796 23.77934,-50.39729 2.176,-109.37823 0.91588,-164.051014 -0.36973,-16.046498 6.51818,-34.206346 -2.48713,-48.098481 z"
       id="rect47"
       inkscape:connector-curvature="0" />
    <rect
       style="fill:#ffffff;fill-opacity:1;stroke-width:0.54743266"
       id="rect846"
       width="164"
       height="58.999992"
       x="45.5"
       y="102.00002"
       ry="1.2072018e-13" />
    <path
       style="fill:#ff9955;fill-opacity:1;stroke-width:1.07758927"
       d="m 88.691574,253.68414 72.285446,-0.35924 -7.00451,61.57442 H 98.811517 Z"
       id="rect41"
       inkscape:connector-curvature="0"
       sodipodi:nodetypes="ccccc" />
    <path
       sodipodi:nodetypes="ccccc"
       inkscape:connector-curvature="0"
       id="path82"
       d="m 88.691574,253.74353 72.285446,-0.4188 -7.00451,71.7495 H 98.811517 Z"
       style="fill:#deaa87;fill-opacity:1;stroke-width:1.16322207" />
    <path
       style="fill:#deaa87;fill-opacity:1;stroke-width:1.25918257"
       d="M 4.6280524,308.25281 C 36.626222,279.83293 181.03283,262.50633 243.15044,308.25276 l 1.40123,86.97866 H 6.0292885 Z"
       id="rect44"
       inkscape:connector-curvature="0"
       sodipodi:nodetypes="ccccc" />
    <path
       style="fill:#917c6f;fill-opacity:1;stroke-width:1.11649382"
       d="m 165.18573,226.57008 -80.459486,0.3597 5.960698,39.53111 c 10.241578,7.05082 23.472168,11.21666 35.237328,11.15031 11.50237,-0.0651 24.04757,-3.86268 34.35303,-10.83479 z"
       id="path84"
       inkscape:connector-curvature="0"
       sodipodi:nodetypes="cccccc" />
    <path
       style="fill:#deaa87;fill-opacity:1;stroke-width:0.79404497"
       d="m 232.84197,153.05901 c -2.4305,19.48466 -10.44648,34.63205 -17.90425,33.83261 -7.45777,-0.7994 -6.83629,-16.73942 -4.40574,-36.2241 2.43049,-19.48466 5.74968,-35.1355 13.20741,-34.3361 7.45777,0.79943 11.53313,17.24292 9.10258,36.72759 z"
       id="path23"
       inkscape:connector-curvature="0"
       sodipodi:nodetypes="sssss" />
    <path
       style="fill:#deaa87;fill-opacity:1;stroke-width:0.79404497"
       d="m 21.343864,154.33382 c 2.430498,19.48466 10.446422,34.63205 17.904241,33.83264 7.457768,-0.79943 6.836292,-16.73946 4.405747,-36.22412 -2.430495,-19.48466 -5.749684,-35.13551 -13.207453,-34.3361 -7.457719,0.79943 -11.533079,17.24291 -9.102535,36.72758 z"
       id="path23-8"
       inkscape:connector-curvature="0"
       sodipodi:nodetypes="sssss" />
    <text
       xml:space="preserve"
       style="font-style:normal;font-weight:normal;font-size:50.36730576px;line-height:1.25;font-family:sans-serif;letter-spacing:0px;word-spacing:0px;fill:#000000;fill-opacity:1;stroke:none;stroke-width:1.25918257"
       x="55.616291"
       y="382.96957"
       id="text91"
       transform="scale(1.0386271,0.96280947)"><tspan
         sodipodi:role="line"
         id="tspan89"
         x="55.616291"
         y="382.96957"
         style="fill:#ff0000;stroke-width:1.25918257">Synja</tspan></text>
    <path
       sodipodi:nodetypes="csssssscccc"
       inkscape:connector-curvature="0"
       id="path93"
       d="m 4.6280524,306.34984 c 0,0 20.9464446,-21.91824 79.7437326,-24.01959 1.585103,-0.0566 2.37899,-0.13626 2.647194,0.0421 7.745497,5.22036 19.929521,15.66775 28.634791,22.3617 8.75386,6.73132 9.22694,5.57858 16.67532,-0.27861 5.75605,-4.52643 25.7045,-17.54987 32.43294,-22.4309 0.13346,-0.0969 4.21612,0.36839 5.24459,0.51917 51.33477,7.52293 73.14382,23.80383 73.14382,23.80383 l 1.40123,88.88388 H 6.0292885 Z"
       style="fill:#0000ff;fill-opacity:1;stroke-width:1.27289867" />
    <ellipse
       style="fill:#004900;fill-opacity:1;stroke-width:1.12319934"
       id="path928"
       cx="67.277214"
       cy="143.3358"
       rx="13.75594"
       ry="12.858945" />
    <ellipse
       ry="12.858945"
       rx="13.75594"
       cy="145.3358"
       cx="164.68102"
       id="ellipse940"
       style="fill:#004900;fill-opacity:1;stroke-width:1.12319934" />
    <ellipse
       style="fill:#000000;fill-opacity:1;stroke-width:1.25929999"
       id="path4628"
       cx="86.601593"
       cy="134.53349"
       rx="6.5978398"
       ry="6.2081981"
       transform="matrix(0.99288372,0.11908787,-0.13823499,0.99039946,0,0)" />
    <ellipse
       transform="matrix(0.99288372,0.11908787,-0.13823499,0.99039946,0,0)"
       ry="6.2081981"
       rx="6.5978398"
       cy="124.99223"
       cx="182.74596"
       id="ellipse942"
       style="fill:#000000;fill-opacity:1;stroke-width:1.25929999" />
    <path
       style="fill:#deaa87;fill-opacity:1;stroke-width:1.15550196"
       d="M 127.44336 37.761719 C 54.283903 38.365629 34.986771 80.540219 34.9375 154.02539 C 34.927078 169.57078 45.172827 192.54886 53.78125 206.95312 C 61.400064 219.70146 68.379195 227.84981 78.238281 237.18359 C 100.20884 257.98353 103.88501 263.36528 126.57422 263.22461 C 148.15695 263.09035 151.48464 259.0888 173.63281 236.13672 C 183.94304 225.45222 192.27501 218.00104 200.05273 206.75977 C 210.89035 191.09607 219.40176 170.87686 219.61133 149.15625 C 220.28688 79.056781 196.63455 39.519529 134.69336 37.832031 C 132.22012 37.764651 129.80334 37.742238 127.44336 37.761719 z M 71.28125 123.91406 C 74.381023 123.95591 77.78546 124.32861 81.771484 125.22266 C 88.791604 126.79725 93.339818 128.86994 97.363281 131.96484 C 102.54645 135.95174 106.67852 140.2042 107.08789 145.08398 C 99.484865 149.2696 101.07154 148.37345 95.785156 149.92969 C 91.509063 151.18851 83.043785 152.86245 75.277344 151.61719 C 66.898126 150.27367 62.526684 148.1039 58.333984 144.4043 C 54.365539 140.90259 51.688119 138.35536 49.740234 130.60352 C 52.167294 127.22289 55.146764 125.73198 62.615234 124.58594 C 65.384948 124.16093 68.181477 123.87221 71.28125 123.91406 z M 182.19531 123.91406 C 185.2951 123.87221 188.08964 124.16093 190.85938 124.58594 C 198.32781 125.73198 201.30728 127.22289 203.73438 130.60352 C 201.78646 138.35536 199.10908 140.90259 195.14062 144.4043 C 190.94792 148.1039 186.57649 150.27367 178.19727 151.61719 C 170.43081 152.86245 161.96554 151.18851 157.68945 149.92969 C 152.40301 148.37345 153.98982 149.2696 146.38672 145.08398 C 146.79609 140.2042 150.92812 135.95174 156.11133 131.96484 C 160.1348 128.86994 164.68497 126.79725 171.70508 125.22266 C 175.69113 124.32861 179.09553 123.95591 182.19531 123.91406 z "
       id="path10" />
    <path
       style="fill:#d38d5f;fill-opacity:1;stroke-width:0.86233658"
       d="m 227.05393,149.49245 c 0,7.75383 -6.30301,14.97662 -7.33228,15.07729 -1.88163,0.18412 3.14935,-9.9372 3.40921,-15.18711 0.22934,-4.62584 -2.68521,-13.63485 -1.66113,-13.74666 1.21186,-0.13233 5.5842,6.10264 5.5842,13.85648 z"
       id="path4638"
       inkscape:connector-curvature="0"
       sodipodi:nodetypes="ssass" />
    <path
       sodipodi:nodetypes="ssass"
       inkscape:connector-curvature="0"
       id="path4641"
       d="m 217.36782,140.79611 c 5.8439,-2.48077 7.45583,0.23708 7.86107,1.43076 0.74064,2.18215 -4.50762,2.03928 -6.68865,3.27685 -3.36042,1.90687 -9.41716,7.56045 -9.8291,6.37648 -0.48737,-1.40093 2.81279,-8.60331 8.65668,-11.08409 z"
       style="fill:#d38d5f;fill-opacity:1;stroke-width:0.86233658" />
    <path
       style="fill:#000000;fill-opacity:1;stroke-width:1.25918257"
       d="m 45.646037,113.45664 c 0,0 6.148699,-4.39709 15.341229,-6.10345 9.192544,-1.70636 22.592115,-1.46213 30.251309,0.23576 7.65919,1.69789 11.127805,3.40673 13.984135,6.54238 2.85648,3.13564 3.21173,9.65516 3.21173,9.65516 0,0 -9.821387,-5.47779 -15.479723,-8.02003 -5.658438,-2.54225 -16.096195,-3.24226 -16.096195,-3.24226 -17.800543,-2.19934 -31.21249,0.93244 -31.21249,0.93244 z"
       id="rect4649"
       inkscape:connector-curvature="0"
       sodipodi:nodetypes="czzzczcc" />
    <path
       sodipodi:nodetypes="ssass"
       inkscape:connector-curvature="0"
       id="path4671"
       d="m 25.567978,149.49245 c 0,7.75383 6.302968,14.97662 7.332223,15.07729 1.881631,0.18412 -3.14932,-9.9372 -3.409169,-15.18711 -0.229354,-4.62584 2.685191,-13.63485 1.66111,-13.74666 -1.211847,-0.13233 -5.584164,6.10264 -5.584164,13.85648 z"
       style="fill:#d38d5f;fill-opacity:1;stroke-width:0.86233658" />
    <path
       style="fill:#d38d5f;fill-opacity:1;stroke-width:0.86233658"
       d="m 35.254032,140.79611 c -5.843868,-2.48077 -7.455811,0.23708 -7.86102,1.43076 -0.740651,2.18215 4.507591,2.03928 6.688603,3.27685 3.360396,1.90687 9.417093,7.56045 9.829037,6.37648 0.487375,-1.40093 -2.812768,-8.60331 -8.65662,-11.08409 z"
       id="path4673"
       inkscape:connector-curvature="0"
       sodipodi:nodetypes="ssass" />
    <path
       style="fill:#d38d5f;fill-opacity:0.85529713;stroke-width:0.57117194"
       d="m 110.4492,187.37953 c -2.75935,-0.42842 -4.34067,4.39714 -3.13847,6.47133 2.22802,3.8441 8.91285,0.19867 13.29789,0.91462 2.2478,0.367 4.30121,1.73448 6.61173,1.72361 2.2303,-0.0137 4.19304,-1.36117 6.35911,-1.72361 4.49816,-0.75267 11.36099,3.02919 13.65149,-0.91462 1.20403,-2.07312 -0.84987,-7.1854 -3.13846,-6.47133 -1.53702,0.47957 1.87632,3.63524 0.7377,4.77365 -2.791,2.79044 -7.75597,-1.9316 -11.70079,-1.81055 -2.01599,0.0619 -3.87384,1.28166 -5.91166,1.29018 -2.11934,0.01 -4.06504,-1.27104 -6.16421,-1.29018 -3.7002,-0.0337 -8.12496,4.51753 -10.90528,2.07571 -1.26417,-1.11025 -0.92831,-3.88449 0.29575,-5.03881 0.001,-0.001 0.005,0 0.005,0 z"
       id="rect4715"
       inkscape:connector-curvature="0"
       sodipodi:nodetypes="caaaaaaaaaaaacc" />
    <path
       style="fill:#ff5555;fill-opacity:0.90697674;stroke-width:0.90917605"
       d="m 107.99487,226.26954 c -3.55759,0.0137 -14.72949,0.0706 -14.72949,0.0706 5.231321,1.02172 11.21011,4.28543 14.25343,5.62401 8.38981,3.69025 7.70565,4.07507 19.60758,5.02411 9.00737,-0.79065 16.83978,-3.44755 24.06839,-6.76504 2.79894,-1.28452 5.45591,-2.35608 8.90472,-3.6531 0,0 -9.73018,-0.18969 -14.59603,-0.23231 -6.33868,-0.0559 -12.74614,0.0592 -19.01685,-0.0321 -7.58564,-0.10948 -1.87436,0.0953 -18.49175,-0.0366 z"
       id="rect848"
       inkscape:connector-curvature="0"
       sodipodi:nodetypes="ccscscascc" />
    <path
       style="fill:#000000;fill-opacity:1;stroke-width:1.30686545"
       d="M 64.855047,30.041379 H 217.58981 l 2.42753,0.107172 -3.97018,72.524689 c 0,0 -11.19528,-16.596276 -20.41006,-19.929021 -21.56854,-7.800765 -43.15311,1.094172 -71.93014,4.197565 C 111.24178,88.286078 98.118218,87.150733 84.70484,83.961251 67.267087,79.814834 52.319611,74.262778 47.106044,59.890782 43.159334,49.011078 64.855047,30.041391 64.855047,30.041391 Z"
       id="rect869"
       inkscape:connector-curvature="0"
       sodipodi:nodetypes="ccccssssc" />
    <text
       xml:space="preserve"
       style="font-style:normal;font-weight:normal;font-size:50.36730576px;line-height:1.25;font-family:sans-serif;letter-spacing:0px;word-spacing:0px;fill:#000000;fill-opacity:1;stroke:none;stroke-width:1.25918269"
       x="57.560379"
       y="378.94342"
       id="text848"
       transform="scale(1.0386271,0.96280948)"><tspan
         sodipodi:role="line"
         x="57.560379"
         y="378.94342"
         id="tspan846"
         style="stroke-width:1.25918269"><tspan
           x="57.560379"
           y="378.94342"
           style="font-style:normal;font-variant:normal;font-weight:bold;font-stretch:normal;font-size:50.3666687px;font-family:Cambria;-inkscape-font-specification:'Cambria, Bold';font-variant-ligatures:normal;font-variant-caps:normal;font-variant-numeric:normal;font-feature-settings:normal;text-align:start;writing-mode:lr-tb;text-anchor:start;fill:#ff0000;stroke-width:1.25918269"
           id="tspan844">Synja</tspan></tspan></text>
    <path
       style="fill:#ff4444;fill-opacity:1;stroke-width:0.96925157"
       d="m 108.20118,226.29561 c -3.67399,0.13334 -14.9358,0.0458 -14.9358,0.0458 2.686343,-0.61468 4.541432,-1.10392 6.245511,-1.99176 4.538219,-2.36437 11.444159,-4.84742 14.998389,-5.38802 3.68831,-0.56095 8.25817,0.98195 12.41078,1.05998 4.60185,0.0866 8.41972,-1.86561 13.79112,-0.65717 2.82514,0.63559 7.52085,3.46615 12.95937,5.4157 2.30509,0.82635 4.48997,1.1179 6.42895,1.79111 0,0 -9.96237,-0.17321 -15.47958,-0.18512 -6.44006,-0.01 -11.41098,1.02572 -17.02706,1.12445 -7.41883,-0.10718 -12.50764,-1.3853 -19.39168,-1.21412 z"
       id="rect848-8"
       inkscape:connector-curvature="0"
       sodipodi:nodetypes="ccssssscsccc" />
    <path
       sodipodi:nodetypes="czzzczcc"
       inkscape:connector-curvature="0"
       id="path926"
       d="m 207.82947,113.45664 c 0,0 -6.14867,-4.39709 -15.34122,-6.10345 -9.19256,-1.70636 -22.59219,-1.46213 -30.25142,0.23576 -7.65925,1.69789 -11.12787,3.40673 -13.98419,6.54238 -2.85653,3.13564 -3.21178,9.65516 -3.21178,9.65516 0,0 9.82143,-5.47779 15.47982,-8.02003 5.65849,-2.54225 16.09631,-3.24226 16.09631,-3.24226 17.80054,-2.19934 31.21248,0.93244 31.21248,0.93244 z"
       style="fill:#000000;fill-opacity:1;stroke-width:1.25918257" />
  </g>
</svg>
