<?xml version="1.0" encoding="UTF-8" standalone="no"?>
<!-- Created with Inkscape (http://www.inkscape.org/) -->

<svg
   xmlns:dc="http://purl.org/dc/elements/1.1/"
   xmlns:cc="http://creativecommons.org/ns#"
   xmlns:rdf="http://www.w3.org/1999/02/22-rdf-syntax-ns#"
   xmlns:svg="http://www.w3.org/2000/svg"
   xmlns="http://www.w3.org/2000/svg"
   xmlns:sodipodi="http://sodipodi.sourceforge.net/DTD/sodipodi-0.dtd"
   xmlns:inkscape="http://www.inkscape.org/namespaces/inkscape"
   width="250px"
   height="400px"
   viewBox="0 0 250 400"
   version="1.1"
   id="SVGRoot"
   inkscape:version="0.92.4 (5da689c313, 2019-01-14)"
   sodipodi:docname="Synja_neutral.svg"
   inkscape:export-filename="C:\Users\Johannes\Synja_neutral.png"
   inkscape:export-xdpi="96"
   inkscape:export-ydpi="96">
  <defs
     id="defs1543" />
  <sodipodi:namedview
     id="base"
     pagecolor="#ffffff"
     bordercolor="#666666"
     borderopacity="1.0"
     inkscape:pageopacity="0.0"
     inkscape:pageshadow="2"
     inkscape:zoom="0.70710681"
     inkscape:cx="227.79739"
     inkscape:cy="105.65509"
     inkscape:document-units="px"
     inkscape:current-layer="layer1"
     showgrid="false"
     inkscape:window-width="1920"
     inkscape:window-height="1001"
     inkscape:window-x="1191"
     inkscape:window-y="-5"
     inkscape:window-maximized="1" />
  <metadata
     id="metadata1546">
    <rdf:RDF>
      <cc:Work
         rdf:about="">
        <dc:format>image/svg+xml</dc:format>
        <dc:type
           rdf:resource="http://purl.org/dc/dcmitype/StillImage" />
        <dc:title />
      </cc:Work>
    </rdf:RDF>
  </metadata>
  <g
     inkscape:label="Ebene 1"
     inkscape:groupmode="layer"
     id="layer1">
    <path
       style="fill:#666666;fill-opacity:1;stroke-width:1.07758927"
       d="m 88.691574,253.68414 72.285446,-0.35924 -7.00451,61.57442 H 98.811517 Z"
       id="rect41"
       inkscape:connector-curvature="0"
       sodipodi:nodetypes="ccccc" />
    <path
       style="fill:#808080;fill-opacity:1;stroke-width:1.58284533"
       d="M 230.93973,40.081795 C 219.75847,22.83291 195.67308,14.176564 174.47245,7.928242 152.77099,1.5323162 128.89131,2.4250809 106.07858,3.648733 79.792491,5.0586873 51.318023,9.058555 33.558502,25.392648 16.895465,40.718268 15.81768,65.52997 12.75118,86.709874 4.76385,141.87733 -4.8613814,202.34206 19.679643,253.47387 c 5.616152,11.70136 16.764724,22.30792 29.859192,27.35238 45.305619,17.45334 102.209215,18.56185 148.015675,2.183 15.19349,-5.43259 28.6038,-17.31428 34.95647,-30.77796 23.77934,-50.39729 2.176,-109.37823 0.91588,-164.051014 -0.36973,-16.046498 6.51818,-34.206346 -2.48713,-48.098481 z"
       id="rect47"
       inkscape:connector-curvature="0" />
    <path
       sodipodi:nodetypes="ccccc"
       inkscape:connector-curvature="0"
       id="path82"
       d="m 88.691574,245.68414 72.285446,-0.41915 -7.00451,71.80924 H 98.811517 Z"
       style="fill:#999999;fill-opacity:1;stroke-width:1.16370618" />
    <path
       style="fill:#999999;fill-opacity:1;stroke-width:1.25918257"
       d="M 4.6280524,308.25281 C 36.626222,279.83293 181.03283,262.50633 243.15044,308.25276 l 1.40123,86.97866 H 6.0292885 Z"
       id="rect44"
       inkscape:connector-curvature="0"
       sodipodi:nodetypes="ccccc" />
    <path
       style="fill:#666666;fill-opacity:1;stroke-width:0.79404497"
       d="m 232.84197,153.05901 c -2.4305,19.48466 -10.44648,34.63205 -17.90425,33.83261 -7.45777,-0.7994 -6.83629,-16.73942 -4.40574,-36.2241 2.43049,-19.48466 5.74968,-35.1355 13.20741,-34.3361 7.45777,0.79943 11.53313,17.24292 9.10258,36.72759 z"
       id="path23"
       inkscape:connector-curvature="0"
       sodipodi:nodetypes="sssss" />
    <path
       style="fill:#666666;fill-opacity:1;stroke-width:0.79404497"
       d="m 21.343864,154.33382 c 2.430498,19.48466 10.446422,34.63205 17.904241,33.83264 7.457768,-0.79943 6.836292,-16.73946 4.405747,-36.22412 -2.430495,-19.48466 -5.749684,-35.13551 -13.207453,-34.3361 -7.457719,0.79943 -11.533079,17.24291 -9.102535,36.72758 z"
       id="path23-8"
       inkscape:connector-curvature="0"
       sodipodi:nodetypes="sssss" />
    <path
       sodipodi:nodetypes="csssssscccc"
       inkscape:connector-curvature="0"
       id="path93"
       d="m 4.6280524,306.34984 c 0,0 20.9464446,-21.91824 79.7437326,-24.01959 1.585103,-0.0566 2.37899,-0.13626 2.647194,0.0421 7.745497,5.22036 19.929521,15.66775 28.634791,22.3617 8.75386,6.73132 9.22694,5.57858 16.67532,-0.27861 5.75605,-4.52643 25.7045,-17.54987 32.43294,-22.4309 0.13346,-0.0969 4.21612,0.36839 5.24459,0.51917 51.33477,7.52293 73.14382,23.80383 73.14382,23.80383 l 1.40123,88.88388 H 6.0292885 Z"
       style="fill:#b3b3b3;fill-opacity:1;stroke-width:1.27289867" />
    <path
       sodipodi:nodetypes="cssscsssc"
       inkscape:connector-curvature="0"
       id="path4643"
       d="m 108.32688,139.83739 c -7.4673,5.66685 -5.52685,4.58561 -11.217668,6.32491 -4.603167,1.40688 -13.055358,3.39341 -21.423548,1.98101 -9.028225,-1.52383 -13.67807,-4.21205 -18.201934,-8.37566 -4.281896,-3.94091 -6.632222,-7.43075 -7.676044,-15.2901 3.548442,-4.82606 5.975221,-6.87329 14.017222,-8.14799 5.964825,-0.94546 12.042747,-1.27463 20.633329,0.74796 7.564931,1.78111 12.469919,4.11784 16.810163,7.60177 5.59136,4.48811 6.60714,9.67508 7.05848,15.1581 z"
       style="fill:#666666;fill-opacity:1;stroke-width:1.34737623" />
    <path
       style="fill:#666666;fill-opacity:1;stroke-width:1.15550196"
       d="m 219.61118,149.156 c -0.20957,21.72061 -8.72063,41.94054 -19.55825,57.60424 -7.77772,11.24127 -16.11084,18.69258 -26.42107,29.37708 -22.14817,22.95208 -25.47398,26.95331 -47.05671,27.08757 -22.68921,0.14067 -26.36651,-5.24066 -48.337067,-26.0406 C 68.378997,227.85051 61.399181,219.70107 53.780367,206.95273 45.171944,192.54846 34.927475,169.57088 34.937897,154.02549 34.988757,78.169828 55.549135,35.676844 134.69285,37.833002 196.63404,39.5205 220.28673,79.056531 219.61118,149.156 Z"
       id="path10"
       inkscape:connector-curvature="0"
       sodipodi:nodetypes="ccscscssc" />
    <path
       style="fill:#808080;fill-opacity:1;stroke-width:1.30686545"
       d="M 64.855047,30.041379 H 217.58981 l 2.42753,0.107172 -3.97018,72.524689 c 0,0 -11.19528,-16.596276 -20.41006,-19.929021 -21.56854,-7.800765 -43.15311,1.094172 -71.93014,4.197565 C 111.24178,88.286078 98.118218,87.150733 84.70484,83.961251 67.267087,79.814834 52.319611,74.262778 47.106044,59.890782 43.159334,49.011078 64.855047,30.041391 64.855047,30.041391 Z"
       id="rect869"
       inkscape:connector-curvature="0"
       sodipodi:nodetypes="ccccssssc" />
    <text
       xml:space="preserve"
       style="font-style:normal;font-weight:normal;font-size:50.36730576px;line-height:1.25;font-family:sans-serif;letter-spacing:0px;word-spacing:0px;fill:#000000;fill-opacity:1;stroke:none;stroke-width:1.25918269"
       x="57.560375"
       y="375.27133"
       id="text848"
       transform="scale(1.0386271,0.96280947)"><tspan
         sodipodi:role="line"
         x="57.560375"
         y="375.27133"
         id="tspan846"
         style="fill:#000000;stroke-width:1.25918269"><tspan
           x="57.560375"
           y="375.27133"
           style="font-style:normal;font-variant:normal;font-weight:bold;font-stretch:normal;font-size:50.3666687px;font-family:Cambria;-inkscape-font-specification:'Cambria, Bold';font-variant-ligatures:normal;font-variant-caps:normal;font-variant-numeric:normal;font-feature-settings:normal;text-align:start;writing-mode:lr-tb;text-anchor:start;fill:#000000;stroke-width:1.25918269"
           id="tspan844">Synja</tspan></tspan></text>
  </g>
</svg>
